
<svg width="407" height="282" viewBox="0 0 407 282" fill="none" xmlns="http://www.w3.org/2000/svg">
<path d="M286.208 271.704C265.28 282.264 244.064 283.992 222.56 276.888C199.712 269.592 180.032 254.04 163.52 230.232C154.688 217.56 147.104 202.872 140.768 186.168L131.552 161.688H63.584L48.32 197.976C47.36 200.472 46.88 202.488 46.88 204.024C46.88 205.56 47.168 207.288 47.744 209.208C48.512 210.936 49.952 212.568 52.064 214.104C54.368 215.448 56.864 216.12 59.552 216.12H61.856V219H0.224V216.12H2.816C7.232 216.12 11.552 214.872 15.776 212.376C20.192 209.688 23.84 205.752 26.72 200.568L90.944 53.976C83.456 37.08 75.488 25.464 67.04 19.128C59.936 13.752 53.12 11.064 46.592 11.064C40.256 11.064 34.304 12.024 28.736 13.944L28.16 11.064C41.984 3.95998 55.232 0.407982 67.904 0.407982C83.648 0.407982 97.76 6.55198 110.24 18.84C122.528 30.936 133.376 48.408 142.784 71.256L184.544 174.36C200.288 213.336 216.416 240.12 232.928 254.712C239.648 260.664 246.56 264.792 253.664 267.096C260.768 269.4 266.72 270.552 271.52 270.552C276.512 270.552 281.312 269.976 285.92 268.824L286.208 271.704ZM68.48 149.304H127.232L107.072 96.024C106.112 93.336 104.768 89.688 103.04 85.08C101.312 80.28 100.16 76.92 99.584 75L68.48 149.304ZM374.071 66.936C374.071 75.96 371.767 84.024 367.159 91.128C362.743 98.232 356.983 103.128 349.879 105.816C372.151 106.968 388.375 115.704 398.551 132.024C403.735 140.28 406.327 150.456 406.327 162.552C406.327 174.648 401.623 185.688 392.215 195.672C382.999 205.656 371.191 212.76 356.791 216.984C342.391 221.208 327.223 223.32 311.287 223.32C271.543 223.32 243.127 212.76 226.039 191.64C215.095 178.2 209.622 160.056 209.622 137.208C209.622 133.368 209.814 129.528 210.198 125.688L213.079 125.4C214.423 158.424 226.231 182.04 248.503 196.248V38.136C248.311 31.032 245.143 25.848 238.999 22.584C236.311 21.048 233.335 20.28 230.07 20.28H226.327V17.4H299.479C320.791 17.4 338.551 21.72 352.759 30.36C366.967 38.808 374.071 51 374.071 66.936ZM299.767 209.784C317.623 209.784 331.543 205.08 341.527 195.672C351.703 186.264 356.791 173.88 356.791 158.52C356.791 148.92 354.967 140.856 351.319 134.328C347.863 127.608 343.255 122.616 337.495 119.352C326.935 113.016 314.935 109.848 301.495 109.848V107.256C307.639 107.256 312.823 105.048 317.047 100.632C324.343 92.952 327.991 82.488 327.991 69.24C327.991 55.992 325.015 46.2 319.063 39.864C313.303 33.528 304.183 30.168 291.703 29.784V209.496C294.391 209.688 297.079 209.784 299.767 209.784Z" fill="black"/>
</svg>